<svg width="98" height="30" viewBox="0 0 98 30" fill="none" xmlns="http://www.w3.org/2000/svg">
<path d="M5.29788 1.07588C6.55383 0.407578 8.13242 0.453668 9.36533 1.16806C10.8863 2.03225 11.8772 3.55323 12.6032 5.09724C11.5777 5.6388 10.5406 6.18036 9.51512 6.7104C9.1464 5.91534 8.75463 5.10877 8.1209 4.49807C7.79827 4.18696 7.31432 3.94499 6.87646 4.1524C6.26577 4.42894 5.88553 5.01659 5.53985 5.56967C4.57196 7.24043 4.07649 9.14165 3.77691 11.0313C3.37362 13.7276 3.38514 16.4815 3.823 19.1778C4.1341 20.9983 4.62957 22.8304 5.57442 24.432C5.90857 24.9621 6.28882 25.5267 6.86494 25.7917C7.27975 25.9876 7.74065 25.7917 8.06328 25.5036C8.74311 24.8929 9.13488 24.0518 9.51512 23.2337C10.5406 23.7753 11.5777 24.3168 12.6032 24.8584C11.8657 26.4139 10.8517 27.9579 9.30772 28.8221C8.08633 29.5135 6.51927 29.5365 5.27483 28.8797C3.85756 28.1423 2.86663 26.8172 2.15223 25.423C1.21891 23.5909 0.688871 21.586 0.354717 19.5695C-0.0831383 16.7465 -0.117706 13.8659 0.262537 11.0313C0.562123 8.86511 1.08064 6.7104 2.03701 4.75157C2.77445 3.27669 3.79995 1.84789 5.29788 1.07588Z" fill="#ED1B23"/>
<path d="M22.6378 0.787558C23.7785 0.441883 25.0575 0.580153 26.1061 1.15628C27.3736 1.84763 28.2954 3.02293 28.9752 4.27888C30.0583 6.34141 30.6229 8.64592 30.934 10.9389C31.3143 13.6121 31.1645 16.3084 31.199 19.0047C31.199 22.3577 31.199 25.7223 31.199 29.0753C30.0353 29.0753 28.8715 29.0753 27.7077 29.0753C27.7077 25.584 27.7077 22.1042 27.7077 18.6129C25.1958 18.6129 22.6839 18.6129 20.172 18.6129C20.172 22.1042 20.172 25.584 20.172 29.0753C19.0082 29.0753 17.8444 29.0753 16.6807 29.0753C16.6922 24.1091 16.6691 19.1429 16.6922 14.1767C16.7498 11.7224 17.084 9.25661 17.8214 6.90602C18.2938 5.43113 18.9276 3.9793 19.8954 2.75791C20.6098 1.87068 21.5316 1.12171 22.6378 0.787558ZM22.465 5.1085C21.7506 6.12249 21.3242 7.30931 20.9901 8.49613C20.4024 10.6508 20.172 12.8862 20.1605 15.1101C22.6724 15.1101 25.1843 15.1101 27.6962 15.1101C27.6847 12.4829 27.3966 9.80969 26.4979 7.32083C26.1522 6.3875 25.7374 5.45418 25.0691 4.70522C24.7234 4.32497 24.2279 3.9793 23.6979 4.10604C23.1678 4.24431 22.7876 4.68217 22.465 5.1085Z" fill="#ED1B23"/>
<path d="M43.5976 0.776195C44.842 0.384429 46.2477 0.614879 47.3193 1.3408C48.7481 2.28565 49.6815 3.7951 50.3498 5.32759C51.3753 7.74732 51.8592 10.3745 52.0321 12.9901C52.1473 14.9489 52.0781 16.9077 52.1012 18.855C52.1012 22.2542 52.1012 25.6418 52.1012 29.0409C50.9374 29.0409 49.7736 29.0409 48.6099 29.0409C48.6099 25.4574 48.6099 21.8739 48.6099 18.2789C48.5868 15.9053 48.7136 13.5086 48.3448 11.1465C48.0337 9.1185 47.5267 7.07901 46.4436 5.31607C46.0749 4.76299 45.6025 4.11773 44.8881 4.04859C44.1276 4.08316 43.6437 4.78603 43.2519 5.36216C42.1573 7.18272 41.6272 9.29134 41.3161 11.3654C40.982 13.4971 41.0741 15.6633 41.0626 17.818C41.0626 21.5513 41.0626 25.2961 41.0626 29.0294C39.8988 29.0294 38.7351 29.0294 37.5713 29.0294C37.5713 19.7307 37.5713 10.4436 37.5713 1.14492C38.7351 1.14492 39.8988 1.14492 41.0626 1.14492C41.0626 1.65191 41.0626 2.14737 41.0626 2.65437C41.7079 1.83627 42.5605 1.09883 43.5976 0.776195Z" fill="#ED1B23"/>
<path d="M87.2561 2.13575C88.1433 1.23699 89.3532 0.614777 90.6322 0.603254C91.8766 0.557164 93.098 1.09872 93.9968 1.92834C95.2066 3.03451 95.9786 4.52091 96.5548 6.03036C97.3383 8.15051 97.7416 10.3974 97.9144 12.6443C98.0297 14.1422 97.9951 15.6517 97.9951 17.1611C97.9951 21.1249 97.9951 25.1001 97.9951 29.0639C96.8313 29.0639 95.6675 29.0639 94.5038 29.0639C94.5038 25.5726 94.5038 22.0928 94.5038 18.6014C91.9919 18.6014 89.4915 18.6014 86.9796 18.6014C86.9796 22.0928 86.9796 25.5726 86.9796 29.0639C85.8158 29.0639 84.652 29.0639 83.4882 29.0639C83.4882 24.1322 83.4767 19.2121 83.4998 14.2805C83.5574 11.6649 83.9261 9.03774 84.7557 6.54888C85.2857 4.93572 86.0347 3.35714 87.2561 2.13575ZM89.1919 5.22379C88.5005 6.26081 88.0742 7.44763 87.7516 8.64597C87.1985 10.7546 86.9796 12.9324 86.968 15.1101C89.4799 15.1101 91.9918 15.1101 94.4922 15.1101C94.4807 12.6558 94.2387 10.19 93.4783 7.85092C93.1211 6.79085 92.6947 5.73078 91.9803 4.85506C91.6462 4.45178 91.1738 4.04849 90.6207 4.09458C89.9869 4.18676 89.5491 4.72832 89.1919 5.22379Z" fill="#ED1B23"/>
<path d="M58.4971 1.17944C59.6608 1.17944 60.8131 1.17944 61.9769 1.17944C61.9769 10.4666 61.9769 19.7653 61.9769 29.0639C60.8131 29.0639 59.6608 29.0639 58.4971 29.0639C58.4971 19.7653 58.4971 10.4781 58.4971 1.17944Z" fill="#ED1B23"/>
<path d="M68.3721 1.17944C72.0478 1.17944 75.7234 1.17944 79.4107 1.17944C79.4107 2.34321 79.4107 3.49546 79.4107 4.65924C76.8987 4.65924 74.3753 4.65924 71.8634 4.65924C71.8634 7.56291 71.8634 10.4666 71.8634 13.3703C74.3753 13.3703 76.8987 13.3703 79.4107 13.3703C79.4107 14.534 79.4107 15.6978 79.4107 16.8616C76.8987 16.8616 74.3868 16.8616 71.8634 16.8616C71.8634 20.929 71.8634 24.9965 71.8634 29.0639C70.6996 29.0639 69.5358 29.0639 68.3721 29.0639C68.3721 19.7653 68.3721 10.4781 68.3721 1.17944Z" fill="#ED1B23"/>
</svg>
