<svg width="66" height="66" viewBox="0 0 66 66" fill="none" xmlns="http://www.w3.org/2000/svg">
<g clip-path="url(#clip0_19175_201407)">
<path d="M32.8851 8.38664C33.6021 8.38664 34.1833 7.8054 34.1833 7.08842V1.29821C34.1833 0.581238 33.6021 0 32.8851 0C32.1682 0 31.5869 0.581238 31.5869 1.29821V7.08842C31.587 7.8054 32.1683 8.38664 32.8851 8.38664Z" fill="#FBAF1A"/>
<path d="M64.6181 44.5996L62.3247 42.3127C61.5089 41.4979 60.4216 41.049 59.263 41.049C58.5221 41.049 57.811 41.2334 57.1807 41.5787L52.859 37.2622L53.0695 37.0519C54.8228 35.2952 54.8221 32.4405 53.0694 30.6897C52.4431 30.0622 51.6615 29.6438 50.8095 29.4677C50.9269 29.0628 50.9886 28.6387 50.9886 28.2047C50.9886 26.9988 50.5202 25.868 49.6722 25.0235C49.0457 24.396 48.2643 23.9776 47.4124 23.8015C47.5297 23.3966 47.5914 22.9726 47.5914 22.5385C47.5914 21.3324 47.123 20.2018 46.2736 19.3561C45.6322 18.7154 44.8436 18.3098 44.0157 18.1372C44.4586 16.6101 44.0801 14.8919 42.8787 13.6884C41.8787 12.6926 40.5217 12.2647 39.2139 12.4034L30.65 10.7824C29.344 10.5346 27.7129 10.3708 26.6833 11.3099C26.6184 11.3691 26.5521 11.4373 26.4869 11.5133C24.8905 10.9314 23.0286 11.2779 21.7502 12.5548C20.9021 13.4019 20.435 14.5321 20.435 15.7374C20.435 16.1715 20.4965 16.5955 20.6136 17.0005C19.7626 17.1765 18.9821 17.5944 18.3578 18.2199C17.508 19.0661 17.0395 20.1951 17.0386 21.399C17.0382 21.8341 17.0999 22.2595 17.2177 22.6656C16.3663 22.8412 15.5853 23.2583 14.959 23.8838C14.1093 24.7326 13.6414 25.8635 13.6414 27.0681C13.6414 27.9908 13.9168 28.8698 14.4273 29.6123C13.7828 29.8308 13.1924 30.1945 12.698 30.6883C10.9436 32.4405 10.943 35.2953 12.6992 37.0546L12.9089 37.2634L8.5867 41.5778C6.98039 40.8215 5.0013 41.1049 3.67575 42.4287L1.38096 44.7171C0.564731 45.5323 0.115363 46.6197 0.115234 47.779C0.115234 48.9384 0.564731 50.0259 1.38096 50.8413L4.24487 53.7017C4.75212 54.2084 5.57416 54.2079 6.08076 53.7007C6.58749 53.1934 6.58697 52.3714 6.07973 51.8648L3.21582 49.0044C2.89072 48.6796 2.71166 48.2445 2.71166 47.7791C2.71166 47.3139 2.89071 46.8788 3.21504 46.5549L5.50996 44.2664C6.08334 43.6937 6.96093 43.6083 7.62737 44.0068C7.6743 44.0773 7.72857 44.1443 7.7907 44.2066C7.90195 44.3181 8.02892 44.4036 8.16375 44.4661L21.3242 57.6072C21.3867 57.7434 21.4726 57.8717 21.5846 57.9838C21.6936 58.093 21.818 58.1775 21.95 58.2396C22.2283 58.5542 22.3821 58.9562 22.3821 59.3849C22.3821 59.8503 22.2031 60.2853 21.878 60.61L19.5854 62.8999C18.908 63.5744 17.8061 63.5742 17.1307 62.902L14.2668 60.0378C13.7598 59.5308 12.9379 59.5308 12.4309 60.0378C11.9239 60.5448 11.9239 61.3667 12.4309 61.8737L15.2969 64.7399C16.1405 65.58 17.2483 65.9999 18.3566 65.9999C19.4652 65.9999 20.5743 65.5794 21.4189 64.7385L23.7129 62.4472C24.5292 61.6319 24.9787 60.5444 24.9787 59.3849C24.9787 58.5575 24.7486 57.7673 24.3207 57.0859L29.1851 52.2274C29.1903 52.2221 29.1955 52.2168 29.2007 52.2115C29.7577 51.6357 31.3089 51.7435 32.809 51.8476C33.8748 51.9218 35.063 52.0041 36.2239 51.8703L41.5509 57.1909C41.2058 57.8201 41.0216 58.5304 41.0216 59.2701C41.0216 60.4283 41.4711 61.5151 42.2873 62.3304L44.5814 64.6217C45.3972 65.4366 46.4845 65.8854 47.6431 65.8854C48.8016 65.8854 49.8889 65.4367 50.7048 64.6217L64.619 50.7243C65.4352 49.9091 65.8848 48.8217 65.8848 47.6623C65.8846 46.5031 65.4351 45.4156 64.6181 44.5996ZM30.1666 13.3334L35.7982 14.3993L32.4274 17.7688C31.906 17.5182 31.1913 17.0508 30.4073 16.3008C29.3342 15.2742 28.5665 14.0889 28.4967 13.3497C28.4965 13.3493 28.4965 13.3489 28.4965 13.3485C28.4965 13.3484 28.4964 13.3482 28.4964 13.3481C28.4914 13.295 28.4901 13.2526 28.4907 13.2202C28.6605 13.179 29.1114 13.1332 30.1666 13.3334ZM23.5849 14.3919C24.2426 13.7348 25.2643 13.659 26.0075 14.1623C26.4286 15.928 27.9349 17.5284 28.6125 18.1768C29.1148 18.6574 30.7262 20.0982 32.3528 20.4942C32.5728 20.8096 32.6926 21.1856 32.6926 21.5824C32.6926 22.0935 32.496 22.5714 32.1377 22.9292C31.7805 23.287 31.3019 23.484 30.7899 23.484C30.2778 23.484 29.7991 23.287 29.4402 22.9275L29.4401 22.9274L29.4395 22.9268L23.5848 17.0827C23.2279 16.7262 23.0313 16.2484 23.0313 15.7374C23.0314 15.2263 23.228 14.7484 23.5849 14.3919ZM20.1926 20.0569C20.5498 19.6992 21.028 19.5021 21.5392 19.5021C22.0511 19.5021 22.5307 19.6996 22.8903 20.0587L27.6046 24.7637C28.347 25.5072 28.347 26.7171 27.6072 27.4581C27.2481 27.8158 26.7678 28.0127 26.2548 28.0127C25.7419 28.0127 25.2616 27.8158 24.904 27.4596L24.9039 27.4595L21.3274 23.8838C21.3219 23.8782 21.3158 23.8731 21.3101 23.8674L20.1912 22.749C19.8322 22.3904 19.6346 21.9116 19.635 21.4009C19.6355 20.8918 19.8325 20.4155 20.1926 20.0569ZM16.7939 25.7208C17.1514 25.3639 17.6305 25.1673 18.1433 25.1673C18.6518 25.1673 19.1268 25.361 19.4828 25.7118L23.0702 29.2976C23.4279 29.6539 23.625 30.1312 23.625 30.6417C23.625 31.152 23.4279 31.6293 23.0688 31.9871C22.7115 32.3439 22.2328 32.5404 21.721 32.5404C21.2083 32.5404 20.7281 32.3434 20.3703 31.9871L19.0697 30.6881C19.0695 30.6877 19.0691 30.6874 19.0688 30.6872L16.794 28.4151C16.4354 28.0568 16.2379 27.5783 16.2379 27.0679C16.2379 26.5575 16.4354 26.0789 16.7939 25.7208ZM14.5329 32.5252C14.8919 32.1666 15.3717 31.9691 15.8838 31.9691C16.3958 31.9691 16.8755 32.1665 17.2344 32.5249L18.5367 33.8256C18.8946 34.1819 19.0915 34.6593 19.0915 35.1698C19.0915 35.6802 18.8944 36.1574 18.534 36.5166C18.1768 36.8743 17.6982 37.0714 17.1862 37.0714C16.674 37.0714 16.1954 36.8744 15.8356 36.514L15.6725 36.3516C15.6704 36.3494 15.6687 36.3471 15.6666 36.345C15.6642 36.3427 15.6616 36.3406 15.6591 36.3383L14.5342 35.2177C13.7918 34.4738 13.7912 33.2661 14.5329 32.5252ZM40.9888 47.2796C40.4821 46.7722 39.6601 46.7718 39.1529 47.2784L37.9979 48.432C36.9004 49.5295 34.9118 49.3913 32.9886 49.2579C30.9002 49.1128 28.7407 48.963 27.3432 50.3977L22.5614 55.1737L10.6037 43.2335L14.8354 39.0094C15.5349 39.4381 16.342 39.6679 17.1864 39.6679C18.3929 39.6679 19.5241 39.2003 20.3691 38.3537C21.2198 37.5066 21.6883 36.3759 21.6883 35.1699C21.6883 35.1587 21.6876 35.1476 21.6876 35.1364C21.6988 35.1365 21.71 35.1371 21.7212 35.1371C22.926 35.1371 24.0563 34.6709 24.9025 33.8258C25.7531 32.9786 26.2217 31.8478 26.2217 30.6419C26.2217 30.6307 26.2209 30.6196 26.2209 30.6084C26.2323 30.6084 26.2436 30.6092 26.2551 30.6092C27.4595 30.6092 28.5905 30.1434 29.4423 29.2951C30.3266 28.4094 30.764 27.2433 30.7556 26.0797C30.7672 26.0798 30.7788 26.0804 30.7904 26.0804C31.9968 26.0803 33.128 25.6128 33.9743 24.765C34.8223 23.9179 35.2895 22.7877 35.2895 21.5824C35.2895 20.7395 35.0603 19.9337 34.633 19.2357L38.342 15.5282C38.6184 15.253 38.9592 15.0802 39.3164 15.0089C39.3551 15.0048 39.3932 14.9986 39.431 14.9912C40.0041 14.9121 40.606 15.089 41.0443 15.5255C41.7866 16.2691 41.7866 17.479 41.047 18.22L39.9174 19.345C39.9136 19.3487 39.9096 19.3521 39.9059 19.3558L38.6048 20.6547C38.0975 21.1613 38.0969 21.9833 38.6037 22.4905C39.1105 22.9979 39.9324 22.9983 40.4396 22.4917L41.5737 21.3591C41.5739 21.3589 41.5742 21.3586 41.5744 21.3583L41.7459 21.1875C42.4903 20.4499 43.6964 20.4515 44.44 21.1941C44.7979 21.5504 44.995 22.0278 44.995 22.5382C44.995 23.0486 44.7979 23.5259 44.4372 23.885L43.3011 25.0234C43.301 25.0235 43.3009 25.0237 43.3008 25.0239L41.9998 26.3196C41.4918 26.8255 41.4901 27.6476 41.9961 28.1554C42.5021 28.6635 43.324 28.665 43.832 28.1592L45.1388 26.8576C45.496 26.4998 45.9747 26.3028 46.4867 26.3028C46.9988 26.3028 47.4776 26.4998 47.8374 26.8602C48.1952 27.2166 48.3922 27.694 48.3922 28.2044C48.3922 28.7148 48.1952 29.1921 47.8353 29.5505L45.5704 31.8163C45.0636 32.3234 45.0637 33.1453 45.5707 33.6521C45.8242 33.9056 46.1563 34.0322 46.4885 34.0322C46.8208 34.0322 47.1531 33.9053 47.4066 33.6518L48.5166 32.5414C48.5229 32.5353 48.5297 32.53 48.536 32.5237C48.8932 32.1658 49.3719 31.9689 49.8839 31.9689C50.396 31.9689 50.8746 32.1658 51.2331 32.525C51.9747 33.2658 51.9741 34.4737 51.2331 35.2159L50.1046 36.3432C50.1042 36.3436 50.1037 36.344 50.1033 36.3443C50.1029 36.3447 50.1025 36.3452 50.1021 36.3456L48.3108 38.1347C47.8036 38.6415 47.8031 39.4635 48.3097 39.9707C48.5632 40.2246 48.8958 40.3515 49.2283 40.3515C49.5602 40.3515 49.8923 40.2249 50.1457 39.9719L51.0219 39.0967L55.2212 43.2912L43.2645 55.2334L38.9805 50.9544C39.2791 50.7624 39.5649 50.5365 39.8332 50.2683L40.9875 49.1153C41.495 48.6089 41.4956 47.7868 40.9888 47.2796ZM62.784 48.8873L48.8698 62.7847C48.5443 63.1098 48.1086 63.2888 47.643 63.2888C47.1774 63.2888 46.7417 63.1098 46.416 62.7846L44.1219 60.4933C43.7968 60.1687 43.6177 59.7342 43.6177 59.2701C43.6177 58.806 43.7968 58.3716 44.1219 58.0469L58.0362 44.1495C58.3618 43.8243 58.7974 43.6452 59.2631 43.6452C59.7287 43.6452 60.1644 43.8243 60.4908 44.1503L62.7842 46.4372C63.1093 46.7619 63.2883 47.1968 63.2883 47.6622C63.2882 48.1277 63.1091 48.5627 62.784 48.8873Z" fill="#1A2F36"/>
<path d="M15.6459 7.29222C15.8994 7.54513 16.2312 7.67146 16.563 7.67146C16.8955 7.67146 17.2282 7.54436 17.4818 7.29028C17.9883 6.78278 17.9875 5.96087 17.48 5.4544L12.7494 0.733209C12.242 0.226736 11.42 0.22738 10.9135 0.735013C10.407 1.24252 10.4078 2.06442 10.9153 2.5709L15.6459 7.29222Z" fill="#FBAF1A"/>
<path d="M49.2064 7.67147C49.5383 7.67147 49.8704 7.54489 50.1238 7.29184L54.8508 2.57052C55.3581 2.06392 55.3586 1.24188 54.8518 0.734639C54.3452 0.227393 53.5233 0.226877 53.016 0.733608L48.289 5.45493C47.7817 5.96153 47.7812 6.78356 48.2879 7.29081C48.5415 7.54463 48.8739 7.67147 49.2064 7.67147Z" fill="#FBAF1A"/>
<path d="M8.09801 55.8427C7.59541 56.3539 7.60237 57.176 8.11374 57.6786L8.11748 57.6822C8.36975 57.9302 8.6973 58.0537 9.02472 58.0537C9.36078 58.0537 9.69684 57.9236 9.95143 57.6647C10.454 57.1534 10.4451 56.3296 9.93389 55.827C9.42278 55.3244 8.60087 55.3315 8.09801 55.8427Z" fill="black"/>
<path d="M44.1638 45.4094C44.3613 45.4094 44.5616 45.3644 44.7497 45.2697C45.3898 44.9468 45.647 44.1661 45.3242 43.526C45.0013 42.8858 44.2205 42.6285 43.5805 42.9514L43.5733 42.9551C42.9331 43.278 42.6796 44.0568 43.0024 44.697C43.2303 45.1492 43.6887 45.4094 44.1638 45.4094Z" fill="black"/>
</g>
<defs>
<clipPath id="clip0_19175_201407">
<rect width="66" height="66" fill="white"/>
</clipPath>
</defs>
</svg>
