<svg width="48" height="48" viewBox="0 0 48 48" fill="none" xmlns="http://www.w3.org/2000/svg">
<path fill-rule="evenodd" clip-rule="evenodd" d="M17.2224 5.5C13.1878 5.5 9.90039 8.82152 9.90039 12.9652C9.90039 16.9981 12.9947 20.2324 16.8541 20.4078C17.09 20.3912 17.3391 20.3904 17.5745 20.4076C21.4302 20.2303 24.5261 16.9981 24.5443 12.9623C24.5428 8.82218 21.2383 5.5 17.2224 5.5ZM6.90039 12.9652C6.90039 7.21483 11.4812 2.5 17.2224 2.5C22.9414 2.5 27.5443 7.21261 27.5443 12.9652L27.5443 12.9713C27.5212 18.5963 23.1529 23.2193 17.5915 23.4093C17.5238 23.4116 17.456 23.4093 17.3886 23.4025C17.2951 23.393 17.1541 23.3916 17.0226 23.4038C16.9597 23.4096 16.8965 23.4114 16.8334 23.4093C11.2729 23.2193 6.90039 18.5959 6.90039 12.9652Z" fill="#F24141"/>
<path fill-rule="evenodd" clip-rule="evenodd" d="M30.4459 8.03906C30.4459 7.21064 31.1175 6.53906 31.9459 6.53906C36.6545 6.53906 40.4002 10.4064 40.4002 15.1062C40.4002 19.7115 36.7996 23.4996 32.2613 23.6723C32.1791 23.6754 32.0968 23.6717 32.0152 23.6614C31.9883 23.658 31.9303 23.6555 31.8559 23.6639C31.0327 23.7568 30.2901 23.1648 30.1971 22.3416C30.1042 21.5184 30.6961 20.7758 31.5193 20.6828C31.7545 20.6563 32.001 20.65 32.2445 20.6698C35.0927 20.5097 37.4002 18.0994 37.4002 15.1062C37.4002 12.0119 34.9467 9.53906 31.9459 9.53906C31.1175 9.53906 30.4459 8.86749 30.4459 8.03906Z" fill="#F24141"/>
<path fill-rule="evenodd" clip-rule="evenodd" d="M17.5658 25.0896C21.4024 25.0896 25.3142 26.0681 28.3364 28.1189C31.0555 29.9575 32.6017 32.5271 32.6017 35.2797C32.6017 38.0316 31.0562 40.6053 28.3391 42.4537L28.3389 42.4539C25.3072 44.5153 21.3899 45.5 17.5508 45.5C13.7126 45.5 9.79614 44.5157 6.76473 42.4552C4.04599 40.6166 2.5 38.0472 2.5 35.2948C2.5 32.5429 4.04546 29.9691 6.76256 28.1207L6.76808 28.117L6.76809 28.117C9.80816 26.0685 13.7281 25.0896 17.5658 25.0896ZM8.44725 30.603C6.35797 32.0253 5.5 33.7516 5.5 35.2948C5.5 36.8378 6.35766 38.5587 8.44641 39.9709L8.4497 39.9731C10.8821 41.627 14.1773 42.5 17.5508 42.5C20.9242 42.5 24.2194 41.6271 26.6517 39.9733C28.743 38.5506 29.6017 36.8235 29.6017 35.2797C29.6017 33.7367 28.744 32.0158 26.6553 30.6036L26.653 30.6021C24.2313 28.9584 20.9411 28.0896 17.5658 28.0896C14.1922 28.0896 10.8908 28.9576 8.44725 30.603Z" fill="#F24141"/>
<path fill-rule="evenodd" clip-rule="evenodd" d="M34.379 27.8956C34.5639 27.0881 35.3685 26.5834 36.176 26.7683C37.7483 27.1284 39.2904 27.7705 40.5904 28.7779C42.4625 30.207 43.5006 32.1912 43.5006 34.2779C43.5006 36.364 42.4631 38.3477 40.592 39.7766C39.2765 40.8013 37.7106 41.4704 36.0922 41.813C35.2818 41.9846 34.4857 41.4667 34.3141 40.6562C34.1425 39.8458 34.6604 39.0496 35.4709 38.8781C36.711 38.6155 37.8447 38.1152 38.7531 37.4063L38.7666 37.3958L38.7667 37.3958C39.9909 36.4628 40.5006 35.319 40.5006 34.2779C40.5006 33.2368 39.9909 32.093 38.7667 31.1599L38.7563 31.152L38.7563 31.152C37.8718 30.4655 36.7534 29.9782 35.5063 29.6926C34.6988 29.5077 34.1941 28.7031 34.379 27.8956Z" fill="#F24141"/>
</svg>
