<svg width="48" height="48" viewBox="0 0 48 48" fill="none" xmlns="http://www.w3.org/2000/svg">
<path fill-rule="evenodd" clip-rule="evenodd" d="M12.7457 7.04205C13.0307 6.69867 13.4538 6.5 13.9 6.5H34.1C34.5462 6.5 34.9693 6.69867 35.2543 7.04205C35.5392 7.38542 35.6565 7.83785 35.5743 8.27643C35.5269 8.52922 35.5 8.77428 35.5 9C35.5 10.9316 37.0684 12.5 39 12.5C39.2257 12.5 39.4708 12.4731 39.7236 12.4257C40.1622 12.3435 40.6146 12.4608 40.958 12.7457C41.3013 13.0307 41.5 13.4538 41.5 13.9V34.1C41.5 34.5462 41.3013 34.9693 40.958 35.2543C40.6146 35.5392 40.1622 35.6565 39.7236 35.5743C39.4708 35.5269 39.2257 35.5 39 35.5C37.0684 35.5 35.5 37.0684 35.5 39C35.5 39.2257 35.5269 39.4708 35.5743 39.7236C35.6565 40.1622 35.5392 40.6146 35.2543 40.958C34.9693 41.3013 34.5462 41.5 34.1 41.5H13.9C13.4538 41.5 13.0307 41.3013 12.7457 40.958C12.4608 40.6146 12.3435 40.1622 12.4257 39.7236C12.4731 39.4708 12.5 39.2257 12.5 39C12.5 37.0684 10.9316 35.5 9 35.5C8.77428 35.5 8.52922 35.5269 8.27643 35.5743C7.83785 35.6565 7.38542 35.5392 7.04205 35.2543C6.69867 34.9693 6.5 34.5462 6.5 34.1V13.9C6.5 13.4538 6.69867 13.0307 7.04205 12.7457C7.38542 12.4608 7.83785 12.3435 8.27643 12.4257C8.52923 12.4731 8.77428 12.5 9 12.5C10.9316 12.5 12.5 10.9316 12.5 9C12.5 8.77428 12.4731 8.52923 12.4257 8.27643C12.3435 7.83785 12.4608 7.38542 12.7457 7.04205ZM15.481 9.5C15.2381 12.69 12.69 15.2381 9.5 15.481V32.519C12.69 32.7619 15.2381 35.31 15.481 38.5H32.519C32.7619 35.31 35.31 32.7619 38.5 32.519V15.481C35.31 15.2381 32.7619 12.69 32.519 9.5H15.481Z" fill="#FBAF1A"/>
<path fill-rule="evenodd" clip-rule="evenodd" d="M9 5.5C7.06843 5.5 5.5 7.06843 5.5 9C5.5 10.6899 6.69927 12.1025 8.28687 12.4276C8.53597 12.4738 8.77739 12.5 9 12.5C10.9316 12.5 12.5 10.9316 12.5 9C12.5 8.77739 12.4738 8.53597 12.4276 8.28687C12.1025 6.69927 10.6899 5.5 9 5.5ZM2.5 9C2.5 5.41157 5.41157 2.5 9 2.5C12.1467 2.5 14.7717 4.7358 15.3704 7.70335L15.3744 7.72354L15.3743 7.72357C15.4469 8.11077 15.5 8.54572 15.5 9C15.5 12.5884 12.5884 15.5 9 15.5C8.54572 15.5 8.11077 15.4469 7.72357 15.3743L7.70332 15.3705L7.70335 15.3704C4.7358 14.7717 2.5 12.1467 2.5 9Z" fill="#FBAF1A"/>
<path fill-rule="evenodd" clip-rule="evenodd" d="M35.5724 8.28684C35.5262 8.53594 35.5 8.77737 35.5 9C35.5 10.9316 37.0684 12.5 39 12.5C39.2226 12.5 39.464 12.4738 39.7131 12.4276C41.3007 12.1025 42.5 10.6899 42.5 9C42.5 7.06843 40.9316 5.5 39 5.5C37.3101 5.5 35.8975 6.69926 35.5724 8.28684ZM32.6296 7.70335C33.2283 4.7358 35.8533 2.5 39 2.5C42.5884 2.5 45.5 5.41157 45.5 9C45.5 12.1467 43.2642 14.7717 40.2967 15.3704L40.2765 15.3744L40.2764 15.3743C39.8892 15.4469 39.4543 15.5 39 15.5C35.4116 15.5 32.5 12.5884 32.5 9C32.5 8.54572 32.5531 8.11078 32.6257 7.72357L32.6295 7.70332L32.6296 7.70335Z" fill="#FBAF1A"/>
<path fill-rule="evenodd" clip-rule="evenodd" d="M8.28684 35.5724C6.69926 35.8975 5.5 37.3101 5.5 39C5.5 40.9316 7.06843 42.5 9 42.5C10.6899 42.5 12.1025 41.3007 12.4276 39.7131C12.4738 39.464 12.5 39.2226 12.5 39C12.5 37.0684 10.9316 35.5 9 35.5C8.77737 35.5 8.53594 35.5262 8.28684 35.5724ZM7.72357 32.6257C8.11078 32.5531 8.54572 32.5 9 32.5C12.5884 32.5 15.5 35.4116 15.5 39C15.5 39.4543 15.4469 39.8892 15.3743 40.2764L15.3705 40.2967L15.3704 40.2967C14.7717 43.2642 12.1467 45.5 9 45.5C5.41157 45.5 2.5 42.5884 2.5 39C2.5 35.8533 4.7358 33.2283 7.70335 32.6296L7.72354 32.6256L7.72357 32.6257Z" fill="#FBAF1A"/>
<path fill-rule="evenodd" clip-rule="evenodd" d="M39 35.5C37.0684 35.5 35.5 37.0684 35.5 39C35.5 39.2226 35.5262 39.4641 35.5724 39.7132C35.8975 41.3007 37.3101 42.5 39 42.5C40.9316 42.5 42.5 40.9316 42.5 39C42.5 37.3101 41.3007 35.8975 39.7132 35.5724C39.4641 35.5262 39.2226 35.5 39 35.5ZM32.5 39C32.5 35.4116 35.4116 32.5 39 32.5C39.4543 32.5 39.8892 32.5531 40.2764 32.6257L40.2967 32.6295L40.2967 32.6296C43.2642 33.2283 45.5 35.8533 45.5 39C45.5 42.5884 42.5884 45.5 39 45.5C35.8533 45.5 33.2283 43.2642 32.6296 40.2967L32.6256 40.2765L32.6257 40.2764C32.5531 39.8892 32.5 39.4543 32.5 39Z" fill="#FBAF1A"/>
</svg>
