<svg width="48" height="48" viewBox="0 0 48 48" fill="none" xmlns="http://www.w3.org/2000/svg">
<path fill-rule="evenodd" clip-rule="evenodd" d="M4.29684 13.6202C6.1049 11.5242 9.19953 10.5 13.7448 10.5H34.2559C38.8012 10.5 41.8958 11.5242 43.7038 13.6202C45.5044 15.7076 45.677 18.4558 45.3881 21.0161L43.849 37.0239C43.6223 39.0871 43.0901 41.3449 41.2096 43.02C39.3516 44.6752 36.474 45.5 32.2048 45.5H15.7959C11.5267 45.5 8.64912 44.6752 6.79111 43.02C4.91064 41.3449 4.37857 39.087 4.15186 37.0238L4.14963 37.0036L2.61264 21.0161C2.32372 18.4558 2.49627 15.7076 4.29684 13.6202ZM6.56845 15.5798C5.60307 16.6989 5.33216 18.3749 5.59498 20.6909L5.59788 20.7164L7.135 36.7061C7.33944 38.5576 7.76147 39.8667 8.78661 40.78C9.83606 41.7148 11.8196 42.5 15.7959 42.5H32.2048C36.1811 42.5 38.1646 41.7148 39.2141 40.78C40.2393 39.8667 40.6613 38.5576 40.8657 36.7059L42.4055 20.6908C42.6683 18.3749 42.3976 16.6989 41.4322 15.5798C40.4713 14.4658 38.4689 13.5 34.2559 13.5H13.7448C9.53178 13.5 7.5294 14.4658 6.56845 15.5798Z" fill="#20AFFF"/>
<path fill-rule="evenodd" clip-rule="evenodd" d="M17.3867 8.10563C17.2999 8.75355 17.2974 9.4905 17.2974 10.4V12C17.2974 12.8284 16.6258 13.5 15.7974 13.5C14.9689 13.5 14.2974 12.8284 14.2974 12L14.2974 10.347C14.2973 9.50068 14.2973 8.57334 14.4132 7.7075C14.5336 6.80851 14.7917 5.85495 15.394 5.00509C16.6528 3.2292 18.9497 2.5 22.3609 2.5H25.6427C29.0539 2.5 31.3508 3.2292 32.6096 5.00509C33.212 5.85495 33.4701 6.80851 33.5904 7.7075C33.7064 8.57334 33.7063 9.50069 33.7063 10.347L33.7063 12C33.7063 12.8284 33.0347 13.5 32.2063 13.5C31.3778 13.5 30.7063 12.8284 30.7063 12V10.4C30.7063 9.4905 30.7037 8.75355 30.617 8.10563C30.5322 7.47274 30.3801 7.04755 30.1621 6.73991C29.7799 6.2008 28.795 5.5 25.6427 5.5H22.3609C19.2086 5.5 18.2237 6.2008 17.8416 6.73991C17.6235 7.04755 17.4714 7.47274 17.3867 8.10563Z" fill="#20AFFF"/>
<path fill-rule="evenodd" clip-rule="evenodd" d="M21.4001 25.5021C21.3985 25.6445 21.3985 25.807 21.3985 26V28.06C21.3985 28.6235 21.4036 29.035 21.4533 29.3834C21.5009 29.7168 21.576 29.8775 21.6399 29.9656C21.7189 30.0741 22.1 30.5 24.0007 30.5C25.9101 30.5 26.2869 30.07 26.3641 29.9625C26.4284 29.873 26.5033 29.7096 26.5502 29.3723C26.5991 29.0198 26.6029 28.6064 26.6029 28.04V26C26.6029 25.807 26.6029 25.6445 26.6013 25.5021C26.4453 25.5001 26.2664 25.5 26.0518 25.5H21.9496C21.7349 25.5 21.5561 25.5001 21.4001 25.5021ZM21.8842 22.5C21.906 22.5 21.9278 22.5 21.9496 22.5H26.0518C26.0736 22.5 26.0954 22.5 26.1172 22.5C26.5727 22.4999 27.0284 22.4998 27.3992 22.54C27.7733 22.5805 28.393 22.6879 28.8937 23.1761C29.4021 23.6717 29.518 24.295 29.5612 24.6739C29.6031 25.0418 29.603 25.492 29.6029 25.9334C29.6029 25.9556 29.6029 25.9778 29.6029 26V28.0634C29.6029 28.5823 29.603 29.1991 29.5217 29.7846C29.4371 30.3941 29.2518 31.0846 28.8008 31.7126C27.8473 33.0401 26.173 33.5 24.0007 33.5C21.8402 33.5 20.1702 33.0459 19.2133 31.7295C18.7594 31.105 18.5704 30.417 18.4834 29.8073C18.3985 29.2125 18.3985 28.5866 18.3985 28.06V26C18.3985 25.9778 18.3985 25.9556 18.3984 25.9334C18.3983 25.492 18.3982 25.0418 18.4402 24.6739C18.4833 24.295 18.5993 23.6717 19.1077 23.1761C19.6083 22.6879 20.2281 22.5805 20.6022 22.54C20.973 22.4998 21.4287 22.4999 21.8842 22.5Z" fill="#20AFFF"/>
<path fill-rule="evenodd" clip-rule="evenodd" d="M45.0182 21.1323C45.4975 21.8081 45.3381 22.7444 44.6624 23.2236C39.7123 26.7339 34.0598 28.8199 28.2865 29.5288C27.4642 29.6298 26.7158 29.0451 26.6149 28.2228C26.5139 27.4006 27.0986 26.6521 27.9209 26.5512C33.2236 25.9001 38.4009 23.9861 42.927 20.7764C43.6028 20.2972 44.539 20.4566 45.0182 21.1323Z" fill="#20AFFF"/>
<path fill-rule="evenodd" clip-rule="evenodd" d="M3.51422 21.7064C3.97409 21.0174 4.90549 20.8316 5.59455 21.2914C10.0079 24.2369 14.9877 26.014 20.0619 26.568C20.8854 26.6579 21.4801 27.3984 21.3902 28.2219C21.3003 29.0454 20.5598 29.6401 19.7363 29.5502C14.1857 28.9442 8.74585 27.0013 3.9292 23.7868C3.24014 23.3269 3.05434 22.3955 3.51422 21.7064Z" fill="#20AFFF"/>
</svg>
