<svg width="48" height="48" viewBox="0 0 48 48" fill="none" xmlns="http://www.w3.org/2000/svg">
<path fill-rule="evenodd" clip-rule="evenodd" d="M13.58 13.5C13.0954 13.5 12.6625 13.5189 12.2661 13.5684C12.2467 13.5709 12.2273 13.5729 12.2078 13.5746C9.79063 13.7812 8.18737 14.5744 7.16533 15.7766C6.12688 16.9981 5.5 18.8624 5.5 21.58V29.58C5.5 33.451 6.28748 35.2825 7.38413 36.2401C8.53121 37.2418 10.4146 37.66 13.58 37.66H14.38C14.9054 37.66 15.3952 37.8273 15.7641 38.0137C16.1339 38.2007 16.5463 38.4897 16.8515 38.8888L16.86 38.8999L19.262 42.1027C19.5541 42.4939 19.8291 42.565 19.98 42.565C20.1309 42.565 20.406 42.4939 20.698 42.1027L20.7 42.1L23.1 38.9C23.6833 38.1223 24.6079 37.66 25.58 37.66H26.38C29.1001 37.66 30.964 37.0369 32.1845 36.0013C33.3849 34.9826 34.1786 33.3808 34.3854 30.9527C34.3871 30.9331 34.3891 30.9135 34.3916 30.894C34.4411 30.4976 34.46 30.0647 34.46 29.58V21.58C34.46 18.6224 33.7194 16.6757 32.5019 15.4582C31.2843 14.2406 29.3376 13.5 26.38 13.5H13.58ZM11.9235 10.5879C12.4774 10.5204 13.0344 10.5 13.58 10.5H26.38C29.8024 10.5 32.6457 11.3594 34.6232 13.3368C36.6006 15.3143 37.46 18.1576 37.46 21.58V29.58C37.46 30.1256 37.4396 30.6825 37.3721 31.2363C37.1147 34.1951 36.0887 36.6228 34.1255 38.2887C32.176 39.943 29.5199 40.66 26.38 40.66H25.58C25.5697 40.66 25.5537 40.6627 25.5358 40.6716C25.5179 40.6806 25.5062 40.6917 25.5 40.7L23.1021 43.8973C22.3341 44.9253 21.2186 45.565 19.98 45.565C18.7415 45.565 17.6269 44.9266 16.859 43.8986L14.4893 40.7391C14.4722 40.7262 14.4451 40.7085 14.4109 40.6912C14.3801 40.6756 14.3538 40.6656 14.3361 40.66H13.58C10.3654 40.66 7.45882 40.2882 5.41088 38.4999C3.31253 36.6675 2.5 33.709 2.5 29.58V21.58C2.5 18.4376 3.22313 15.782 4.87969 13.8334C6.54725 11.872 8.97367 10.8454 11.9235 10.5879Z" fill="#15C872"/>
<path fill-rule="evenodd" clip-rule="evenodd" d="M13.8475 10.5H26.3801C29.8025 10.5 32.6458 11.3594 34.6232 13.3368C36.6007 15.3143 37.4601 18.1576 37.4601 21.58V29.3134C38.9574 28.9457 40.037 28.2809 40.7955 27.39C41.8327 26.172 42.4601 24.3087 42.4601 21.58V13.58C42.4601 10.6224 41.7195 8.67575 40.5019 7.45817C39.2843 6.24059 37.3377 5.5 34.3801 5.5H21.5801C18.8625 5.5 16.9981 6.12688 15.7767 7.16533C14.8837 7.92445 14.2165 9.00423 13.8475 10.5ZM13.8335 4.87969C15.782 3.22313 18.4377 2.5 21.5801 2.5H34.3801C37.8025 2.5 40.6458 3.35942 42.6232 5.33685C44.6007 7.31428 45.4601 10.1576 45.4601 13.58V21.58C45.4601 24.7313 44.7375 27.388 43.0796 29.335C41.4056 31.301 38.9681 32.3215 36.0079 32.5746C35.5569 32.6131 35.1126 32.446 34.7989 32.1198C34.4852 31.7935 34.3355 31.3431 34.3917 30.894C34.4412 30.4976 34.4601 30.0647 34.4601 29.58V21.58C34.4601 18.6224 33.7195 16.6757 32.5019 15.4582C31.2843 14.2406 29.3377 13.5 26.3801 13.5H13.5801C13.0954 13.5 12.6625 13.5189 12.2661 13.5684C11.817 13.6246 11.3666 13.4749 11.0403 13.1612C10.7141 12.8475 10.547 12.4032 10.5855 11.9522C10.8389 8.9894 11.8657 6.55266 13.8335 4.87969Z" fill="#15C872"/>
<path fill-rule="evenodd" clip-rule="evenodd" d="M24.9912 26.5C24.9912 25.3954 25.8866 24.5 26.9912 24.5H27.0092C28.1138 24.5 29.0092 25.3954 29.0092 26.5C29.0092 27.6046 28.1138 28.5 27.0092 28.5H26.9912C25.8866 28.5 24.9912 27.6046 24.9912 26.5Z" fill="#15C872"/>
<path fill-rule="evenodd" clip-rule="evenodd" d="M17.9912 26.5C17.9912 25.3954 18.8866 24.5 19.9912 24.5H20.0092C21.1138 24.5 22.0092 25.3954 22.0092 26.5C22.0092 27.6046 21.1138 28.5 20.0092 28.5H19.9912C18.8866 28.5 17.9912 27.6046 17.9912 26.5Z" fill="#15C872"/>
<path fill-rule="evenodd" clip-rule="evenodd" d="M10.9912 26.5C10.9912 25.3954 11.8866 24.5 12.9912 24.5H13.0092C14.1138 24.5 15.0092 25.3954 15.0092 26.5C15.0092 27.6046 14.1138 28.5 13.0092 28.5H12.9912C11.8866 28.5 10.9912 27.6046 10.9912 26.5Z" fill="#15C872"/>
</svg>
