<svg width="48" height="48" viewBox="0 0 48 48" fill="none" xmlns="http://www.w3.org/2000/svg">
<path d="M25.7181 6.93081V9.40661H27.5338C32.0679 9.40661 35.6214 13.2445 35.6214 17.8244C35.6214 18.6448 34.9563 19.3099 34.1359 19.3099C33.3155 19.3099 32.6504 18.6448 32.6504 17.8244C32.6504 14.7471 30.2921 12.3776 27.5338 12.3776H25.7181V23.7028L30.6913 25.4434C33.6724 26.4868 35.6214 29.3841 35.6214 32.5783C35.6214 36.667 32.4472 40.1068 28.3807 40.1068H25.7181V42.5826C25.7181 43.403 25.053 44.0681 24.2326 44.0681C23.4122 44.0681 22.7471 43.403 22.7471 42.5826V40.1068H20.9314C16.3973 40.1068 12.8438 36.2689 12.8438 31.689C12.8438 30.8686 13.5088 30.2035 14.3292 30.2035C15.1496 30.2035 15.8147 30.8686 15.8147 31.689C15.8147 34.7664 18.173 37.1358 20.9314 37.1358H22.7471V25.8106L17.7738 24.07C14.7928 23.0266 12.8438 20.1293 12.8438 16.935C12.8438 12.8463 16.0181 9.40661 20.0845 9.40661H22.7471V6.93081C22.7471 6.1104 23.4122 5.44531 24.2326 5.44531C25.053 5.44531 25.7181 6.1104 25.7181 6.93081ZM22.7471 12.3776H20.0845C17.7939 12.3776 15.8148 14.3489 15.8148 16.935C15.8148 18.9429 17.0361 20.6641 18.7553 21.2658L22.7471 22.663V12.3776V12.3776ZM25.7181 26.8505V37.1358H28.3807C30.6713 37.1358 32.6504 35.1645 32.6504 32.5784C32.6504 30.5706 31.4292 28.8494 29.7099 28.2476L25.7181 26.8505H25.7181V26.8505Z" fill="#6E62FF"/>
</svg>
