<svg width="48" height="48" viewBox="0 0 48 48" fill="none" xmlns="http://www.w3.org/2000/svg">
<path fill-rule="evenodd" clip-rule="evenodd" d="M31.0352 2.55274C33.3687 2.25435 35.7295 3.20858 38.1283 5.46568L38.1311 5.46828C40.538 7.74446 41.6337 10.0535 41.4693 12.4052C41.3104 14.6777 39.993 16.6011 38.4908 18.1882M38.4908 18.1882L22.0789 35.5596C21.6163 36.0634 20.9933 36.4902 20.4027 36.8059C19.8045 37.1257 19.1126 37.3995 18.463 37.515L18.453 37.5167L12.0153 38.6163C10.4542 38.8855 8.95717 38.4953 7.89076 37.484C6.82585 36.4741 6.35528 35.0014 6.52961 33.4325L6.53012 33.4279L7.27333 26.9198C7.35965 26.2725 7.60008 25.5719 7.88349 24.9642C8.16589 24.3586 8.5512 23.7165 9.00716 23.2311L9.01009 23.228L25.4301 5.848C26.9332 4.26025 28.7802 2.84108 31.0352 2.55274M27.6097 7.90934C27.6095 7.9096 27.61 7.90907 27.6097 7.90934L11.1937 25.2851C11.1934 25.2855 11.194 25.2848 11.1937 25.2851C11.0298 25.4601 10.8046 25.7986 10.6024 26.2321C10.4039 26.6578 10.2846 27.0516 10.2489 27.3048L9.51126 33.7638C9.51118 33.7645 9.51111 33.7651 9.51103 33.7658C9.42602 34.5357 9.66528 35.0324 9.95511 35.3072C10.2437 35.5809 10.7467 35.7908 11.5056 35.6599L11.5079 35.6595L17.9421 34.5605C18.1926 34.5152 18.5787 34.3793 18.9882 34.1603C19.4034 33.9383 19.7157 33.699 19.872 33.5275L19.8899 33.5078L36.3101 16.128C37.6474 14.7153 38.3905 13.428 38.4766 12.196C38.5572 11.0431 38.0832 9.55259 36.0714 7.64951C34.0708 5.76752 32.562 5.38193 31.4157 5.52851C30.1909 5.68513 28.9464 6.49758 27.6097 7.90934Z" fill="#00BBA5"/>
<path fill-rule="evenodd" clip-rule="evenodd" d="M23.5486 8.29519C24.3672 8.16767 25.1341 8.72785 25.2616 9.5464C26.0159 14.3876 29.9449 18.0929 34.8298 18.5849C35.6541 18.6679 36.255 19.4034 36.172 20.2276C36.0889 21.0519 35.3534 21.6528 34.5292 21.5698C28.2941 20.9418 23.2631 16.207 22.2974 10.0082C22.1699 9.18967 22.73 8.42272 23.5486 8.29519Z" fill="#00BBA5"/>
<path fill-rule="evenodd" clip-rule="evenodd" d="M4.5 43.6797C4.5 42.8513 5.17157 42.1797 6 42.1797H42C42.8284 42.1797 43.5 42.8513 43.5 43.6797C43.5 44.5081 42.8284 45.1797 42 45.1797H6C5.17157 45.1797 4.5 44.5081 4.5 43.6797Z" fill="#00BBA5"/>
</svg>
