<svg width="66" height="32" viewBox="0 0 66 32" fill="none" xmlns="http://www.w3.org/2000/svg">
<path d="M45.4679 9.39923C45.4679 6.57149 45.4679 3.73631 45.4679 0.908569C46.744 0.908569 48.0127 0.908569 49.2889 0.908569C49.2889 8.37976 49.2889 15.8509 49.2889 23.3221C48.2079 23.3221 47.1269 23.3221 46.0459 23.3221C45.8657 22.9352 45.6781 22.5482 45.4979 22.1613C44.8148 22.6301 44.0641 23.0096 43.2684 23.2403C41.0839 23.8802 38.6292 23.2998 36.85 21.9157C35.0934 20.5688 33.9824 18.4406 33.8698 16.2379C35.1685 16.2379 36.4672 16.2379 37.7659 16.2379C37.886 17.2276 38.3964 18.1578 39.1771 18.7829C40.0479 19.4972 41.2415 19.8023 42.345 19.594C43.411 19.4079 44.3794 18.7605 44.9574 17.8527C45.4904 17.0267 45.6781 15.9923 45.4829 15.0324C45.2652 13.9013 44.492 12.8967 43.4636 12.3684C42.4276 11.8251 41.1439 11.7805 40.0705 12.2493C38.8168 12.7851 37.9085 14.0055 37.7584 15.3449C36.4597 15.3449 35.161 15.3449 33.8623 15.3449C33.9824 13.0306 35.1985 10.8057 37.1053 9.4662C39.1021 8.03745 41.8721 7.63562 44.1392 8.64021C44.6121 8.85601 45.055 9.11646 45.4679 9.39923Z" fill="#FCAF17"/>
<path d="M50.8203 8.53605C52.089 8.52116 53.3501 8.52861 54.6188 8.52861C54.6188 10.7759 54.6188 13.0158 54.6188 15.2631C54.6263 15.851 54.5737 16.4612 54.7614 17.0267C55.1893 18.448 56.563 19.4973 58.0344 19.6386C59.2505 19.7726 60.5041 19.2591 61.3074 18.3438C61.8629 17.7262 62.1932 16.9076 62.1932 16.0742C62.2007 13.559 62.1932 11.0364 62.1932 8.52116C63.4618 8.52116 64.7305 8.52116 65.9991 8.52116C65.9991 13.5962 65.9991 18.6638 65.9991 23.7389C65.9766 26.1797 64.6404 28.546 62.5685 29.8632C61.1122 30.8157 59.3256 31.2324 57.599 31.0464C55.3094 30.8231 53.17 29.4837 51.9614 27.5414C51.2182 26.3657 50.8278 24.9816 50.8203 23.59C52.0289 23.59 53.245 23.59 54.4536 23.59C54.4536 24.7509 55.1067 25.8671 56.0901 26.4922C57.3363 27.3033 59.0403 27.4001 60.3465 26.6931C61.1272 26.269 61.7428 25.5471 62.013 24.7063C62.2908 23.8728 62.1632 22.9724 62.1932 22.1092C61.6152 22.6152 60.9696 23.0617 60.2339 23.3073C59.0328 23.6942 57.7191 23.6273 56.503 23.337C54.1308 22.7492 52.119 20.9483 51.2857 18.6713C50.978 17.8378 50.8203 16.9597 50.8203 16.0742C50.8203 13.5664 50.8278 11.0512 50.8203 8.53605Z" fill="#FCAF17"/>
<path d="M20.6202 9.33969C22.1441 8.34254 24.0358 7.91838 25.8525 8.14162C28.0745 8.39463 30.1389 9.65967 31.3775 11.4977C32.1507 12.6362 32.6087 13.9831 32.6912 15.3524C31.385 15.3524 30.0789 15.3524 28.7727 15.3524C28.6601 14.4222 28.1946 13.5292 27.474 12.9116C26.6557 12.1898 25.5147 11.84 24.4262 11.9814C23.3377 12.1079 22.3168 12.7181 21.7012 13.6111C21.0781 14.4892 20.8605 15.6351 21.1157 16.6769C21.3709 17.7857 22.1591 18.7531 23.1951 19.2517C24.2611 19.7726 25.5672 19.7726 26.6332 19.2442C27.7893 18.6787 28.615 17.5104 28.7652 16.2379C30.0713 16.2379 31.3775 16.2379 32.6837 16.2379C32.5636 18.5447 31.325 20.7623 29.4107 22.0868C27.9094 23.151 26.0177 23.6495 24.1785 23.4784C21.9114 23.2924 19.7645 22.0496 18.4733 20.1893C17.4223 18.7084 16.9419 16.8481 17.122 15.0473C17.3322 12.7404 18.6685 10.5898 20.6202 9.33969Z" fill="#2A2A86"/>
<path d="M0.69043 8.52862C1.95158 8.52862 3.22024 8.52862 4.48138 8.52862C4.48138 10.7015 4.48138 12.867 4.48138 15.0399C4.4964 15.6873 4.42133 16.3496 4.609 16.9821C4.9393 18.1504 5.91519 19.0806 7.06374 19.4675C7.88198 19.7503 8.80533 19.7354 9.61607 19.4229C10.7346 19.0136 11.6654 18.0611 11.9582 16.9002C12.0933 16.4165 12.0633 15.9105 12.0633 15.4119C12.0633 13.12 12.0633 10.8206 12.0633 8.52862C13.332 8.52862 14.6006 8.52862 15.8693 8.52862C15.8693 12.9339 15.8693 17.3318 15.8693 21.7371C15.8467 22.9427 15.9669 24.1705 15.6591 25.3537C15.1186 27.6308 13.4295 29.5953 11.2526 30.4957C9.51848 31.2324 7.49914 31.2919 5.72001 30.6594C3.63311 29.9302 1.91404 28.2558 1.15585 26.1946C0.840566 25.3686 0.69043 24.483 0.69043 23.5975C1.89903 23.5975 3.11514 23.5975 4.32374 23.5975C4.32374 24.617 4.81919 25.5992 5.60741 26.2392C7.11629 27.5042 9.60856 27.5117 11.0198 26.0978C11.6129 25.5099 11.9882 24.7137 12.0483 23.8877C12.0783 23.2998 12.0558 22.7045 12.0633 22.1167C11.4552 22.6524 10.7646 23.1212 9.9839 23.3519C8.70774 23.7166 7.32648 23.6198 6.05782 23.2552C3.72319 22.5631 1.78643 20.6879 1.05827 18.3811C0.810539 17.6146 0.69043 16.8109 0.697936 16.0072C0.69043 13.5144 0.69043 11.0215 0.69043 8.52862Z" fill="#2A2A86"/>
</svg>
