<svg width="30" height="22" viewBox="0 0 30 22" fill="none" xmlns="http://www.w3.org/2000/svg">
<g id="Group">
<g id="Group_2">
<path id="Vector" d="M21.2267 12.5067C23.0533 13.7467 24.3333 15.4267 24.3333 17.6667V21.6667H29.6667V17.6667C29.6667 14.76 24.9067 13.04 21.2267 12.5067Z" fill="#2947A9"/>
<path id="Vector_2" d="M19 11C21.9467 11 24.3333 8.61337 24.3333 5.66671C24.3333 2.72004 21.9467 0.333374 19 0.333374C18.3733 0.333374 17.7867 0.466707 17.2267 0.653374C18.3333 2.02671 19 3.77337 19 5.66671C19 7.56004 18.3333 9.30671 17.2267 10.68C17.7867 10.8667 18.3733 11 19 11Z" fill="#2947A9"/>
<path id="Vector_3" d="M11 11C13.9467 11 16.3333 8.61337 16.3333 5.66671C16.3333 2.72004 13.9467 0.333374 11 0.333374C8.05332 0.333374 5.66666 2.72004 5.66666 5.66671C5.66666 8.61337 8.05332 11 11 11ZM11 3.00004C12.4667 3.00004 13.6667 4.20004 13.6667 5.66671C13.6667 7.13337 12.4667 8.33337 11 8.33337C9.53332 8.33337 8.33332 7.13337 8.33332 5.66671C8.33332 4.20004 9.53332 3.00004 11 3.00004Z" fill="#2947A9"/>
<path id="Vector_4" d="M11 12.3334C7.43999 12.3334 0.333328 14.12 0.333328 17.6667V21.6667H21.6667V17.6667C21.6667 14.12 14.56 12.3334 11 12.3334ZM19 19H2.99999V17.68C3.26666 16.72 7.39999 15 11 15C14.6 15 18.7333 16.72 19 17.6667V19Z" fill="#2947A9"/>
</g>
</g>
</svg>
