<svg width="183" height="51" viewBox="0 0 183 51" fill="none" xmlns="http://www.w3.org/2000/svg">
<g id="OBJECTS" clip-path="url(#clip0_1_165)">
<path id="Vector" d="M57.9728 16.7758L58.0235 18.8106V51H0L32.3442 18.6139L45.7141 5.22459H29.0276L0.0654869 34.2242L0.0147874 32.1894V0H58.0383L39.4485 18.6139L25.6899 32.3861L12.3221 45.7733H29.0107L57.9728 16.7758Z" fill="#005EBC"/>
<g id="Group">
<path id="Vector_2" d="M78.5589 41.1495C77.6928 41.1495 76.983 40.9697 76.4338 40.6059C75.8845 40.2442 75.517 39.7535 75.329 39.1295C75.1409 38.5076 75.1409 37.8202 75.329 37.0671C75.517 36.3141 75.9141 35.5632 76.5204 34.8102L92.3006 14.1043V16.1455H78.0372C77.0844 16.1455 76.3535 15.9002 75.8486 15.4073C75.3416 14.9166 75.0902 14.2207 75.0902 13.3238C75.0902 12.427 75.3437 11.7395 75.8486 11.2615C76.3535 10.7835 77.0844 10.5444 78.0372 10.5444H95.4651C96.3608 10.5444 97.0748 10.7263 97.6114 11.088C98.1459 11.4497 98.5134 11.9341 98.7162 12.5433C98.919 13.1504 98.919 13.8378 98.7162 14.6057C98.5134 15.3735 98.1099 16.1328 97.5015 16.8837L81.7213 37.5473V35.5505H96.6777C97.6304 35.5505 98.3613 35.7896 98.8662 36.2676C99.3711 36.7456 99.6246 37.4331 99.6246 38.3299C99.6246 39.2268 99.3711 39.9586 98.8662 40.4346C98.3592 40.9126 97.6304 41.1516 96.6777 41.1516H78.5568L78.5589 41.1495Z" fill="#353535"/>
<path id="Vector_3" d="M113.068 41.6276C110.555 41.6276 108.393 41.1728 106.587 40.2611C104.781 39.3495 103.393 38.0613 102.426 36.3967C101.458 34.732 100.972 32.7712 100.972 30.5142C100.972 28.2573 101.435 26.3832 102.36 24.7185C103.286 23.0539 104.578 21.753 106.241 20.8117C107.903 19.8726 109.788 19.4009 111.898 19.4009C113.43 19.4009 114.818 19.6547 116.06 20.1602C117.302 20.6679 118.371 21.3913 119.269 22.3305C120.164 23.2717 120.844 24.4139 121.307 25.7592C121.77 27.1045 122 28.6021 122 30.2519C122 30.8019 121.827 31.2144 121.48 31.4893C121.134 31.7643 120.627 31.9018 119.964 31.9018H106.351V28.5153H117.276L116.584 29.1224C116.584 27.9358 116.41 26.9459 116.064 26.1484C115.717 25.3531 115.219 24.7524 114.568 24.3463C113.918 23.9422 113.115 23.7392 112.162 23.7392C111.093 23.7392 110.183 23.9846 109.431 24.4774C108.679 24.9702 108.102 25.6788 107.696 26.6053C107.291 27.5318 107.09 28.6465 107.09 29.9474V30.2942C107.09 32.4941 107.603 34.1143 108.63 35.1571C109.657 36.1999 111.18 36.7203 113.204 36.7203C113.897 36.7203 114.693 36.6336 115.589 36.4601C116.484 36.2867 117.323 36.0117 118.102 35.6352C118.768 35.3179 119.359 35.2079 119.879 35.3094C120.399 35.411 120.804 35.65 121.094 36.0265C121.383 36.403 121.55 36.8366 121.592 37.3295C121.637 37.8223 121.527 38.3067 121.267 38.7847C121.007 39.2628 120.574 39.6604 119.966 39.9777C118.983 40.5277 117.876 40.9401 116.649 41.2151C115.42 41.4901 114.228 41.6276 113.073 41.6276H113.068Z" fill="#353535"/>
<path id="Vector_4" d="M129.108 41.5409C128.04 41.5409 127.222 41.2511 126.658 40.6736C126.094 40.0962 125.813 39.2712 125.813 38.1988V22.7873C125.813 21.717 126.094 20.8985 126.658 20.3337C127.222 19.7689 128.008 19.4876 129.02 19.4876C130.032 19.4876 130.856 19.7689 131.405 20.3337C131.954 20.8985 132.229 21.717 132.229 22.7873V25.2621L131.751 23.8301C132.417 22.4129 133.405 21.3194 134.721 20.5516C136.035 19.7858 137.531 19.4009 139.208 19.4009C140.886 19.4009 142.316 19.7266 143.414 20.3781C144.513 21.0296 145.337 22.0132 145.886 23.331C146.435 24.6487 146.71 26.3198 146.71 28.344V38.1988C146.71 39.2691 146.429 40.094 145.865 40.6736C145.301 41.2532 144.483 41.5409 143.414 41.5409C142.345 41.5409 141.572 41.2511 141.008 40.6736C140.444 40.0962 140.163 39.2712 140.163 38.1988V28.6486C140.163 27.1722 139.895 26.1082 139.36 25.4589C138.826 24.8074 138.008 24.4816 136.91 24.4816C135.522 24.4816 134.417 24.9152 133.593 25.7846C132.769 26.6518 132.357 27.811 132.357 29.2578V38.2009C132.357 40.4304 131.274 41.543 129.106 41.543L129.108 41.5409Z" fill="#353535"/>
<path id="Vector_5" d="M154.904 15.9276C153.689 15.9276 152.758 15.6463 152.107 15.0815C151.456 14.5168 151.131 13.7151 151.131 12.6723C151.131 11.6295 151.456 10.7834 152.107 10.2186C152.758 9.65388 153.689 9.37256 154.904 9.37256C156.119 9.37256 157.042 9.65388 157.678 10.2186C158.314 10.7834 158.633 11.602 158.633 12.6723C158.633 13.7426 158.314 14.5168 157.678 15.0815C157.042 15.6463 156.117 15.9276 154.904 15.9276ZM154.904 41.4964C153.835 41.4964 153.018 41.1854 152.454 40.5636C151.889 39.9417 151.609 39.066 151.609 37.9365V23.0897C151.609 21.9327 151.889 21.0422 152.454 20.4203C153.018 19.7985 153.833 19.4875 154.904 19.4875C155.975 19.4875 156.746 19.7985 157.31 20.4203C157.874 21.0422 158.155 21.9327 158.155 23.0897V37.9365C158.155 39.066 157.88 39.9417 157.331 40.5636C156.782 41.1854 155.973 41.4964 154.904 41.4964Z" fill="#353535"/>
<path id="Vector_6" d="M165.483 41.4542C164.674 41.4542 164.024 41.2299 163.531 40.7815C163.039 40.3331 162.788 39.762 162.773 39.0661C162.758 38.3723 163.039 37.6637 163.618 36.9382L170.338 28.6909V31.6438L164.095 24.0036C163.489 23.2506 163.2 22.5272 163.229 21.8334C163.257 21.1396 163.519 20.5749 164.009 20.1412C164.499 19.7076 165.15 19.4897 165.961 19.4897C166.772 19.4897 167.391 19.6209 167.911 19.8811C168.43 20.1412 168.922 20.5749 169.385 21.184L174.024 27.132H171.726L176.365 21.184C176.857 20.577 177.362 20.1412 177.881 19.8811C178.401 19.6209 179.037 19.4897 179.789 19.4897C180.598 19.4897 181.249 19.714 181.741 20.1624C182.233 20.6108 182.485 21.1819 182.499 21.8778C182.514 22.5716 182.218 23.2823 181.61 24.0057L175.368 31.6459V28.6931L182.132 36.9403C182.738 37.6341 183.027 38.33 182.998 39.0238C182.968 39.7176 182.702 40.2971 182.195 40.7604C181.688 41.2236 181.031 41.4542 180.222 41.4542C179.413 41.4542 178.798 41.3167 178.293 41.0417C177.786 40.7667 177.29 40.3394 176.798 39.762L171.726 33.2937H173.937L168.865 39.762C168.403 40.3119 167.919 40.7329 167.412 41.0205C166.905 41.3103 166.263 41.4542 165.483 41.4542Z" fill="#353535"/>
</g>
</g>
<defs>
<clipPath id="clip0_1_165">
<rect width="183" height="51" fill="white"/>
</clipPath>
</defs>
</svg>
