<svg width="60" height="60" viewBox="0 0 60 60" fill="none" xmlns="http://www.w3.org/2000/svg">
<g id="Frame">
<g id="Group">
<path id="Vector" d="M11.8697 15.5807C8.88574 15.5807 6.32672 16.6478 4.19263 18.7819C2.05855 20.916 0.991501 23.475 0.991501 26.4589V44.5892H19.1218V26.4589H4.61756C4.61756 24.457 5.32578 22.7479 6.74221 21.3314C8.15864 19.915 9.8678 19.2068 11.8697 19.2068V15.5807ZM37.2521 15.5807C34.2682 15.5807 31.7092 16.6478 29.5751 18.7819C27.441 20.916 26.3739 23.475 26.3739 26.4589V44.5892H44.5042V26.4589H30C30 24.457 30.7082 22.7479 32.1246 21.3314C33.5411 19.915 35.2502 19.2068 37.2521 19.2068V15.5807ZM4.61756 30.085H15.4958V40.9632H4.61756V30.085ZM30 30.085H40.8782V40.9632H30V30.085Z" fill="#3267FF"/>
</g>
</g>
</svg>
