<svg width="32" height="32" viewBox="0 0 32 32" fill="none" xmlns="http://www.w3.org/2000/svg">
<g id="sim_card" clip-path="url(#clip0_1_263)">
<path id="Vector" d="M24 2.66663H13.3333L5.33334 10.6666V26.6666C5.33334 28.1333 6.53334 29.3333 8.00001 29.3333H24C25.4667 29.3333 26.6667 28.1333 26.6667 26.6666V5.33329C26.6667 3.86663 25.4667 2.66663 24 2.66663ZM24 5.33329V26.6666H8.00001V11.7733L14.44 5.33329H24ZM9.33334 22.6666H12V25.3333H9.33334V22.6666ZM20 22.6666H22.6667V25.3333H20V22.6666ZM9.33334 14.6666H12V20H9.33334V14.6666ZM14.6667 20H17.3333V25.3333H14.6667V20ZM14.6667 14.6666H17.3333V17.3333H14.6667V14.6666ZM20 14.6666H22.6667V20H20V14.6666Z" fill="#2947A9"/>
</g>
<defs>
<clipPath id="clip0_1_263">
<rect width="32" height="32" fill="white"/>
</clipPath>
</defs>
</svg>
