<svg width="223" height="25" viewBox="0 0 223 25" fill="none" xmlns="http://www.w3.org/2000/svg">
<g id="Artboard 2 1">
<path id="Vector" d="M9.31988 4.07564H11.4004V0.297159C10.3939 0.181212 9.38176 0.125103 8.36906 0.129106C5.36785 0.129106 3.31226 2.09695 3.31226 5.71281V9.04134H0V13.2698H3.31226V23.8951H7.36935V13.2698H10.5474L11.0519 9.04134H7.37143V6.1324C7.37143 4.91049 7.68352 4.07239 9.31988 4.07239V4.07564Z" fill="white"/>
<path id="Vector_2" d="M143.506 23.8949H143.512V15.1789C143.512 10.9158 142.631 7.63062 137.848 7.63062C135.549 7.63062 134.006 8.94577 133.374 10.1926H133.308V8.0231H128.773V23.8938H133.495V16.0365C133.495 13.9678 133.872 11.9675 136.33 11.9675C138.752 11.9675 138.788 14.3289 138.788 16.1699V23.8949H143.506Z" fill="white"/>
<path id="Vector_3" d="M121.089 8.02319H125.817V23.895H121.089V8.02319Z" fill="white"/>
<path id="Vector_4" d="M123.447 0.127959C122.902 0.125387 122.368 0.291717 121.914 0.605837C121.459 0.919957 121.105 1.3677 120.895 1.89224C120.685 2.41678 120.63 2.99446 120.735 3.55196C120.841 4.10946 121.103 4.62163 121.489 5.02348C121.874 5.42532 122.366 5.69871 122.901 5.80895C123.436 5.91919 123.99 5.8613 124.493 5.64263C124.997 5.42397 125.426 5.05439 125.728 4.5808C126.029 4.10722 126.189 3.55098 126.186 2.98269C126.186 2.22566 125.897 1.49971 125.384 0.964409C124.87 0.429105 124.173 0.128246 123.447 0.127959Z" fill="white"/>
<path id="Vector_5" d="M102.059 3.84654C101.873 3.13015 101.51 2.47706 101.006 1.95225C100.503 1.42743 99.8762 1.0492 99.1888 0.855193C96.6422 0.127686 86.4475 0.127686 86.4475 0.127686C86.4475 0.127686 76.2527 0.127686 73.7051 0.827003C73.0178 1.03094 72.3926 1.41588 71.8895 1.94474C71.3865 2.4736 71.0226 3.12856 70.8328 3.84654C70.1619 6.50286 70.1619 12.0118 70.1619 12.0118C70.1619 12.0118 70.1619 17.5477 70.8328 20.1759C71.0191 20.8922 71.382 21.5453 71.8856 22.0701C72.3891 22.5949 73.0157 22.9731 73.703 23.1672C76.2787 23.8947 86.4464 23.8947 86.4464 23.8947C86.4464 23.8947 96.6412 23.8947 99.1888 23.1954C99.8763 23.0011 100.503 22.6226 101.007 22.0977C101.51 21.5727 101.874 20.9195 102.06 20.203C102.73 17.5477 102.73 12.0389 102.73 12.0389C102.73 12.0389 102.757 6.50503 102.059 3.84654ZM83.1997 17.1V6.92245L91.677 12.0118L83.1997 17.1Z" fill="white"/>
<path id="Vector_6" d="M46.0107 0.127686H35.5527C33.9161 0.129694 32.3471 0.808176 31.1899 2.0143C30.0326 3.22042 29.3816 4.8557 29.3797 6.56141V17.461C29.3816 19.1667 30.0326 20.802 31.1899 22.0081C32.3471 23.2142 33.9161 23.8927 35.5527 23.8947H46.0107C47.6473 23.8927 49.2163 23.2142 50.3735 22.0081C51.5308 20.802 52.1818 19.1667 52.1837 17.461V6.56141C52.1818 4.8557 51.5308 3.22042 50.3735 2.0143C49.2163 0.808176 47.6473 0.129694 46.0107 0.127686ZM40.7791 18.5094C39.5461 18.5082 38.3411 18.1259 37.3165 17.411C36.2919 16.696 35.4936 15.6806 35.0227 14.4929C34.5517 13.3052 34.4292 11.9987 34.6705 10.7384C34.9119 9.4782 35.5064 8.32084 36.3788 7.41266C37.2512 6.50448 38.3623 5.88627 39.5718 5.63616C40.7813 5.38605 42.0347 5.51528 43.1737 6.00752C44.3127 6.49975 45.2861 7.33289 45.9709 8.4016C46.6556 9.47032 47.021 10.7266 47.0208 12.0118C47.0189 13.7357 46.3604 15.3884 45.1901 16.6068C44.0197 17.8251 42.4332 18.5094 40.7791 18.5094ZM47.1654 7.04714C46.8011 7.04692 46.445 6.93413 46.1421 6.72301C45.8393 6.51189 45.6033 6.21193 45.464 5.86105C45.3247 5.51017 45.2884 5.12413 45.3596 4.75173C45.4308 4.37933 45.6064 4.03729 45.8641 3.76887C46.1218 3.50044 46.45 3.31767 46.8074 3.24367C47.1647 3.16967 47.5351 3.20776 47.8717 3.35312C48.2083 3.49848 48.496 3.74459 48.6983 4.06033C48.9007 4.37608 49.0088 4.74727 49.0088 5.12699C49.0082 5.63626 48.8138 6.12449 48.4682 6.48449C48.1226 6.84449 47.654 7.04685 47.1654 7.04714Z" fill="white"/>
<path id="Vector_7" d="M40.7791 6.90625C39.8102 6.90625 38.8631 7.20569 38.0575 7.76669C37.2519 8.3277 36.624 9.12508 36.2533 10.058C35.8825 10.9909 35.7855 12.0175 35.9745 13.0079C36.1635 13.9982 36.6301 14.908 37.3152 15.622C38.0003 16.336 38.8731 16.8223 39.8234 17.0193C40.7736 17.2163 41.7586 17.1152 42.6537 16.7287C43.5488 16.3423 44.3139 15.6879 44.8522 14.8483C45.3904 14.0087 45.6777 13.0216 45.6777 12.0118C45.6764 10.6582 45.1598 9.36039 44.2414 8.40322C43.323 7.44605 42.0778 6.90769 40.7791 6.90625Z" fill="white"/>
<path id="Vector_8" d="M47.1654 4.59814C47.0654 4.59836 46.9678 4.62947 46.8848 4.68754C46.8018 4.74561 46.7371 4.82804 46.699 4.92441C46.6609 5.02079 46.651 5.12678 46.6707 5.22899C46.6903 5.33121 46.7385 5.42507 46.8093 5.4987C46.88 5.57234 46.9701 5.62245 47.0681 5.64271C47.1662 5.66297 47.2678 5.65247 47.3601 5.61252C47.4524 5.57258 47.5313 5.50499 47.5868 5.4183C47.6423 5.33161 47.672 5.2297 47.672 5.12546C47.6717 4.9855 47.6182 4.85138 47.5232 4.75252C47.4282 4.65367 47.2995 4.59814 47.1654 4.59814Z" fill="white"/>
</g>
</svg>
